# xmcd
#
# Track frame offsets: 
#        150
#        21885
#        32175
#        41615
#        55665
#        82356
#        90760
#        105624
#        114884
#        140498
#        160107
#
# Disc length: 2440 seconds
#
# Revision: 0
# Processed by: cddbd v1.5.2PL0 Copyright (c) Steve Scherf et al.
# Submitted via: ExactAudioCopyFreeDBPlugin 1.0
#
DISCID=8209860b
DTITLE=Pamyua - mengluni
DYEAR=1998
DGENRE=Native American
TTITLE0=Uivaaraanga
TTITLE1=Kaaka-gguq Cuayalriitqaa
TTITLE2=Reindeer Herding Song
TTITLE3=My People
TTITLE4=Tarvarnauramken
TTITLE5=Inngerneq
TTITLE6=Cauyaqa Nauwa
TTITLE7=Lullaby
TTITLE8=Imumirpak
TTITLE9=Unugaanga
TTITLE10=Pulling From Within
EXTD=
EXTT0=
EXTT1=
EXTT2=
EXTT3=
EXTT4=
EXTT5=
EXTT6=
EXTT7=
EXTT8=
EXTT9=
EXTT10=
PLAYORDER=
